<svg width="24" height="24" viewBox="0 0 24 24" fill="none" xmlns="http://www.w3.org/2000/svg">
<mask id="mask0_1222_1425" style="mask-type:alpha" maskUnits="userSpaceOnUse" x="0" y="0" width="24" height="24">
<rect width="24" height="24" fill="#D9D9D9"/>
</mask>
<g mask="url(#mask0_1222_1425)">
<path d="M9.54989 17.7125C9.40061 17.7125 9.25866 17.6877 9.12406 17.6381C8.98946 17.5884 8.86619 17.5076 8.75424 17.3957L4.45424 13.0957C4.24301 12.8844 4.14156 12.615 4.14989 12.2875C4.15822 11.96 4.26801 11.6906 4.47924 11.4794C4.69047 11.2681 4.95768 11.1625 5.28086 11.1625C5.60405 11.1625 5.87126 11.2681 6.08249 11.4794L9.54989 14.9467L17.9173 6.57935C18.1285 6.36812 18.3979 6.2615 18.7254 6.2595C19.053 6.25752 19.3243 6.36414 19.5396 6.57935C19.7508 6.79059 19.8564 7.06097 19.8564 7.3905C19.8564 7.72002 19.7508 7.99039 19.5396 8.20163L10.3455 17.3957C10.2336 17.5076 10.1103 17.5884 9.97571 17.6381C9.84111 17.6877 9.69917 17.7125 9.54989 17.7125Z" fill="#00B820"/>
</g>
</svg>
