<svg width="24" height="24" viewBox="0 0 24 24" fill="none" xmlns="http://www.w3.org/2000/svg">
<mask id="mask0_1223_1425" style="mask-type:alpha" maskUnits="userSpaceOnUse" x="0" y="0" width="24" height="24">
<rect width="24" height="24" fill="#D9D9D9"/>
</mask>
<g mask="url(#mask0_1223_1425)">
<path d="M5.9998 13.1375C5.6806 13.1375 5.41122 13.0277 5.19165 12.8081C4.97209 12.5886 4.8623 12.3192 4.8623 12C4.8623 11.6808 4.97209 11.4114 5.19165 11.1918C5.41122 10.9723 5.6806 10.8625 5.9998 10.8625H17.9998C18.319 10.8625 18.5884 10.9723 18.808 11.1918C19.0275 11.4114 19.1373 11.6808 19.1373 12C19.1373 12.3192 19.0275 12.5886 18.808 12.8081C18.5884 13.0277 18.319 13.1375 17.9998 13.1375H5.9998Z" fill="#FF6D01"/>
</g>
</svg>
