<svg width="25" height="25" viewBox="0 0 25 25" fill="none" xmlns="http://www.w3.org/2000/svg">
<mask id="mask0_1222_1431" style="mask-type:alpha" maskUnits="userSpaceOnUse" x="0" y="0" width="25" height="25">
<rect x="0.322754" y="0.0752716" width="24" height="24" fill="#D9D9D9"/>
</mask>
<g mask="url(#mask0_1222_1431)">
<path d="M12.3229 13.6666L7.5185 18.4709C7.30727 18.6822 7.04205 18.7878 6.72285 18.7878C6.40365 18.7878 6.13843 18.6822 5.9272 18.4709C5.71597 18.2597 5.61035 17.9945 5.61035 17.6753C5.61035 17.3561 5.71597 17.0909 5.9272 16.8796L10.7316 12.0753L5.9272 7.27093C5.71597 7.05969 5.61035 6.79448 5.61035 6.47528C5.61035 6.15608 5.71597 5.89086 5.9272 5.67963C6.13843 5.46839 6.40365 5.36278 6.72285 5.36278C7.04205 5.36278 7.30727 5.46839 7.5185 5.67963L12.3229 10.484L17.1272 5.67963C17.3384 5.46839 17.6037 5.36278 17.9229 5.36278C18.2421 5.36278 18.5073 5.46839 18.7185 5.67963C18.9297 5.89086 19.0354 6.15608 19.0354 6.47528C19.0354 6.79448 18.9297 7.05969 18.7185 7.27093L13.9142 12.0753L18.7185 16.8796C18.9297 17.0909 19.0354 17.3561 19.0354 17.6753C19.0354 17.9945 18.9297 18.2597 18.7185 18.4709C18.5073 18.6822 18.2421 18.7878 17.9229 18.7878C17.6037 18.7878 17.3384 18.6822 17.1272 18.4709L12.3229 13.6666Z" fill="#FF1440"/>
</g>
</svg>
